<svg width="32" height="32" viewBox="0 0 32 32" fill="none" xmlns="http://www.w3.org/2000/svg">
<path d="M27.2937 2.66669H4.70707C4.45317 2.66316 4.20107 2.70969 3.96516 2.8036C3.72924 2.89752 3.51414 3.03698 3.33213 3.21404C3.15013 3.39109 3.00478 3.60227 2.90439 3.8355C2.80401 4.06874 2.75055 4.31946 2.74707 4.57336V27.4267C2.75055 27.6806 2.80401 27.9313 2.90439 28.1645C3.00478 28.3978 3.15013 28.6089 3.33213 28.786C3.51414 28.9631 3.72924 29.1025 3.96516 29.1964C4.20107 29.2904 4.45317 29.3369 4.70707 29.3334H27.2937C27.5476 29.3369 27.7997 29.2904 28.0357 29.1964C28.2716 29.1025 28.4867 28.9631 28.6687 28.786C28.8507 28.6089 28.996 28.3978 29.0964 28.1645C29.1968 27.9313 29.2503 27.6806 29.2537 27.4267V4.57336C29.2503 4.31946 29.1968 4.06874 29.0964 3.8355C28.996 3.60227 28.8507 3.39109 28.6687 3.21404C28.4867 3.03698 28.2716 2.89752 28.0357 2.8036C27.7997 2.70969 27.5476 2.66316 27.2937 2.66669ZM10.7871 24.9867H6.78707V12.9867H10.7871V24.9867ZM8.78707 11.3067C8.23542 11.3067 7.70636 11.0875 7.31629 10.6975C6.92621 10.3074 6.70707 9.77834 6.70707 9.22669C6.70707 8.67504 6.92621 8.14598 7.31629 7.75591C7.70636 7.36583 8.23542 7.14669 8.78707 7.14669C9.08 7.11347 9.37664 7.1425 9.65757 7.23187C9.9385 7.32124 10.1974 7.46894 10.4173 7.66531C10.6372 7.86167 10.8131 8.10226 10.9336 8.37133C11.054 8.6404 11.1163 8.93188 11.1163 9.22669C11.1163 9.52149 11.054 9.81298 10.9336 10.082C10.8131 10.3511 10.6372 10.5917 10.4173 10.7881C10.1974 10.9844 9.9385 11.1321 9.65757 11.2215C9.37664 11.3109 9.08 11.3399 8.78707 11.3067ZM25.2137 24.9867H21.2137V18.5467C21.2137 16.9334 20.6404 15.88 19.1871 15.88C18.7373 15.8833 18.2993 16.0244 17.9322 16.2843C17.565 16.5441 17.2864 16.9103 17.1337 17.3334C17.0294 17.6467 16.9842 17.9768 17.0004 18.3067V24.9734H13.0004C13.0004 24.9734 13.0004 14.0667 13.0004 12.9734H17.0004V14.6667C17.3638 14.0362 17.8923 13.5167 18.529 13.1643C19.1657 12.8119 19.8865 12.6398 20.6137 12.6667C23.2804 12.6667 25.2137 14.3867 25.2137 18.08V24.9867Z" fill="white"/>
</svg>
